<svg width="34" height="22" viewBox="0 0 34 22" fill="none" xmlns="http://www.w3.org/2000/svg">
<path fill-rule="evenodd" clip-rule="evenodd" d="M0.724609 10.9995C0.724609 10.6846 0.849721 10.3826 1.07242 10.1599C1.29512 9.93716 1.59716 9.81205 1.91211 9.81205H29.9205L22.4464 2.3403C22.2234 2.11732 22.0981 1.81489 22.0981 1.49955C22.0981 1.1842 22.2234 0.881777 22.4464 0.658797C22.6693 0.435816 22.9718 0.310547 23.2871 0.310547C23.6025 0.310547 23.9049 0.435816 24.1279 0.658797L33.6279 10.1588C33.7385 10.2691 33.8262 10.4001 33.8861 10.5444C33.9459 10.6887 33.9767 10.8434 33.9767 10.9995C33.9767 11.1557 33.9459 11.3104 33.8861 11.4547C33.8262 11.5989 33.7385 11.73 33.6279 11.8403L24.1279 21.3403C23.9049 21.5633 23.6025 21.6885 23.2871 21.6885C22.9718 21.6885 22.6693 21.5633 22.4464 21.3403C22.2234 21.1173 22.0981 20.8149 22.0981 20.4995C22.0981 20.1842 22.2234 19.8818 22.4464 19.6588L29.9205 12.187H1.91211C1.59716 12.187 1.29512 12.0619 1.07242 11.8392C0.849721 11.6165 0.724609 11.3145 0.724609 10.9995V10.9995Z" fill="#FAFAFA"/>
</svg>
